<svg width="56" height="30" viewBox="0 0 56 30" fill="none" xmlns="http://www.w3.org/2000/svg">
<path fill-rule="evenodd" clip-rule="evenodd" d="M14.9091 6.5V24.0588H41.0909V6.5H14.9091ZM13.4545 2C12.6512 2 12 2.6584 12 3.47059V25.5294C12 26.3416 12.6512 27 13.4545 27H42.5455C43.3488 27 44 26.3416 44 25.5294V3.47059C44 2.6584 43.3488 2 42.5455 2H13.4545Z" fill="#241C15"/>
<path fill-rule="evenodd" clip-rule="evenodd" d="M24 11.1797V12.3422L20.1736 14.6638L24 16.9854V18.1797L19.4791 15.5305C18.8183 15.1433 18.8202 14.1875 19.4825 13.8029L24 11.1797Z" fill="#241C15"/>
<path fill-rule="evenodd" clip-rule="evenodd" d="M32 18.1797L32 17.0172L35.8264 14.6956L32 12.374L32 11.1797L36.5209 13.8289C37.1817 14.2161 37.1798 15.1719 36.5175 15.5565L32 18.1797Z" fill="#241C15"/>
<path fill-rule="evenodd" clip-rule="evenodd" d="M24.4648 19.3584L30.1988 10L31.5367 10.0015L25.7602 19.3584H24.4648Z" fill="#241C15"/>
</svg>
