<svg width="56" height="32" viewBox="0 0 56 32" fill="none" xmlns="http://www.w3.org/2000/svg">
<path fill-rule="evenodd" clip-rule="evenodd" d="M15.7273 6.70588V24.2941H40.2727V6.70588H15.7273ZM14.3636 4C13.6105 4 13 4.60573 13 5.35294V25.6471C13 26.3943 13.6105 27 14.3636 27H41.6364C42.3895 27 43 26.3943 43 25.6471V5.35294C43 4.60573 42.3895 4 41.6364 4H14.3636Z" fill="#241C15"/>
<path fill-rule="evenodd" clip-rule="evenodd" d="M21 15C22.6569 15 24 13.6569 24 12C24 10.3431 22.6569 9 21 9C19.3431 9 18 10.3431 18 12C18 13.6569 19.3431 15 21 15Z" fill="#241C15"/>
<path fill-rule="evenodd" clip-rule="evenodd" d="M34.3199 11H36.0117L42 15.3413L40.3928 17.5409L35.2403 13.8056L25.1849 22.4864L22.3351 20.6014L14.7675 27L13 24.9259L21.4262 17.8014H23.0393L24.9656 19.0756L34.3199 11Z" fill="#241C15"/>
</svg>
