<svg width="24px" height="24px" viewBox="0 0 24 24" fill="none" xmlns="http://www.w3.org/2000/svg" color="currentColor" focusable="false" aria-hidden="true"><path d="m10.636 4.565-.07.071a1.929 1.929 0 0 0 0 2.728l.07.07a1.929 1.929 0 0 0 2.728 0l.07-.07a1.929 1.929 0 0 0 0-2.728l-.07-.07a1.929 1.929 0 0 0-2.728 0Z" fill="currentColor"></path><path d="m10.636 4.565-.07.071a1.929 1.929 0 0 0 0 2.728l.07.07a1.929 1.929 0 0 0 2.728 0l.07-.07a1.929 1.929 0 0 0 0-2.728l-.07-.07a1.929 1.929 0 0 0-2.728 0ZM4.636 4.565l-.07.071a1.929 1.929 0 0 0 0 2.728l.07.07a1.929 1.929 0 0 0 2.728 0l.071-.07a1.929 1.929 0 0 0 0-2.728l-.07-.07a1.929 1.929 0 0 0-2.729 0ZM16.636 4.565l-.071.071a1.929 1.929 0 0 0 0 2.728l.07.07a1.929 1.929 0 0 0 2.728 0l.071-.07a1.929 1.929 0 0 0 0-2.728l-.07-.07a1.929 1.929 0 0 0-2.729 0ZM10.636 10.565l-.071.071a1.929 1.929 0 0 0 0 2.728l.07.07a1.929 1.929 0 0 0 2.729 0l.07-.07a1.929 1.929 0 0 0 0-2.728l-.07-.07a1.929 1.929 0 0 0-2.729 0Z" fill="currentColor"></path><path d="m10.636 10.565-.071.071a1.929 1.929 0 0 0 0 2.728l.07.07a1.929 1.929 0 0 0 2.729 0l.07-.07a1.929 1.929 0 0 0 0-2.728l-.07-.07a1.929 1.929 0 0 0-2.729 0ZM4.636 10.565l-.07.071a1.929 1.929 0 0 0 0 2.728l.07.07a1.929 1.929 0 0 0 2.728 0l.07-.07a1.929 1.929 0 0 0 0-2.728l-.07-.07a1.929 1.929 0 0 0-2.728 0ZM16.636 10.565l-.07.071a1.929 1.929 0 0 0 0 2.728l.07.07a1.929 1.929 0 0 0 2.728 0l.07-.07a1.929 1.929 0 0 0 0-2.728l-.07-.07a1.929 1.929 0 0 0-2.728 0ZM10.636 16.565l-.07.071a1.929 1.929 0 0 0 0 2.728l.07.07a1.929 1.929 0 0 0 2.728 0l.07-.07a1.929 1.929 0 0 0 0-2.728l-.07-.07a1.929 1.929 0 0 0-2.728 0Z" fill="currentColor"></path><path d="m10.636 16.565-.07.071a1.929 1.929 0 0 0 0 2.728l.07.07a1.929 1.929 0 0 0 2.728 0l.07-.07a1.929 1.929 0 0 0 0-2.728l-.07-.07a1.929 1.929 0 0 0-2.728 0ZM4.636 16.565l-.071.071a1.929 1.929 0 0 0 0 2.728l.07.07a1.929 1.929 0 0 0 2.729 0l.07-.07a1.929 1.929 0 0 0 0-2.728l-.07-.07a1.929 1.929 0 0 0-2.728 0ZM16.636 16.565l-.07.071a1.929 1.929 0 0 0 0 2.728l.07.07a1.929 1.929 0 0 0 2.728 0l.07-.07a1.929 1.929 0 0 0 0-2.728l-.07-.07a1.929 1.929 0 0 0-2.728 0Z" fill="currentColor"></path></svg>